<?xml version="1.0" encoding="utf-8"?>
<!-- Generator: Adobe Illustrator 25.1.0, SVG Export Plug-In . SVG Version: 6.00 Build 0)  -->
<svg version="1.1" id="Layer_1" xmlns="http://www.w3.org/2000/svg" xmlns:xlink="http://www.w3.org/1999/xlink" x="0px" y="0px"
	 viewBox="0 0 24 24" style="enable-background:new 0 0 24 24;" xml:space="preserve">
<style type="text/css">
	.st0{fill:#055282;}
</style>
<desc>Created with Sketch.</desc>
<path class="st0" d="M8.2,10.9l-2.4,0V8.4H8c0.2,0,0.4,0,0.6,0c0.2,0,0.4,0.1,0.5,0.2C9.3,8.7,9.4,8.9,9.5,9
	c0.1,0.2,0.1,0.4,0.1,0.6c0,0.5-0.1,0.8-0.4,1C9,10.8,8.6,10.9,8.2,10.9z"/>
<path class="st0" d="M9.6,12.9c0.3,0.2,0.5,0.6,0.5,1.2c0,0.3,0,0.5-0.2,0.7c-0.1,0.2-0.2,0.3-0.4,0.4c-0.2,0.1-0.3,0.2-0.6,0.2
	c-0.2,0.1-0.4,0.1-0.7,0.1H5.8v-3h2.6C8.9,12.6,9.3,12.7,9.6,12.9z"/>
<path class="st0" d="M17.9,11.2c-0.3-0.3-0.6-0.4-1.2-0.4c-0.3,0-0.6,0.1-0.9,0.2c-0.2,0.1-0.4,0.3-0.5,0.4
	c-0.1,0.2-0.2,0.4-0.3,0.5C15,12.1,15,12.3,15,12.4h3.5C18.4,11.9,18.2,11.5,17.9,11.2z M17.9,11.2c-0.3-0.3-0.6-0.4-1.2-0.4
	c-0.3,0-0.6,0.1-0.9,0.2c-0.2,0.1-0.4,0.3-0.5,0.4c-0.1,0.2-0.2,0.4-0.3,0.5C15,12.1,15,12.3,15,12.4h3.5
	C18.4,11.9,18.2,11.5,17.9,11.2z M22.1,0H1.9C0.8,0,0,0.8,0,1.9V22c0,1.1,0.8,1.9,1.9,1.9h20.2c1,0,1.9-0.8,1.9-1.9V1.9
	C24,0.8,23.2,0,22.1,0z M14.6,7.1H19v1.2h-4.4V7.1z M12.2,15.7c-0.2,0.4-0.5,0.7-0.9,1c-0.4,0.2-0.8,0.4-1.2,0.6
	c-0.5,0.1-1,0.2-1.4,0.2H3.4V6.5h5.1c0.5,0,1,0,1.4,0.1c0.4,0.1,0.8,0.2,1.1,0.5c0.3,0.2,0.5,0.5,0.7,0.8C11.9,8.3,12,8.7,12,9.2
	c0,0.6-0.1,1-0.4,1.4c-0.2,0.4-0.6,0.7-1.1,0.9c0.7,0.2,1.2,0.5,1.5,1c0.3,0.5,0.5,1.1,0.5,1.7C12.5,14.8,12.4,15.3,12.2,15.7z
	 M15.5,15.3c0.3,0.3,0.8,0.5,1.4,0.5c0.4,0,0.8-0.1,1.1-0.3c0.3-0.2,0.5-0.4,0.6-0.7h1.9c-0.3,0.9-0.8,1.6-1.4,2
	c-0.6,0.4-1.4,0.6-2.3,0.6c-0.6,0-1.2-0.1-1.7-0.3c-0.5-0.2-0.9-0.5-1.3-0.8c-0.3-0.4-0.6-0.8-0.8-1.3c-0.2-0.5-0.3-1.1-0.3-1.7
	c0-0.6,0.1-1.1,0.3-1.6c0.2-0.5,0.5-0.9,0.8-1.3c0.4-0.4,0.8-0.7,1.3-0.9c0.5-0.2,1-0.3,1.6-0.3c0.7,0,1.3,0.1,1.8,0.4
	c0.5,0.3,0.9,0.6,1.2,1c0.3,0.4,0.5,0.9,0.7,1.5c0.2,0.5,0.2,1.1,0.2,1.7H15C15,14.5,15.2,15,15.5,15.3z M16.7,10.8
	c-0.3,0-0.6,0.1-0.9,0.2c-0.2,0.1-0.4,0.3-0.5,0.4c-0.1,0.2-0.2,0.4-0.3,0.5C15,12.1,15,12.3,15,12.4h3.5c-0.1-0.5-0.3-1-0.5-1.2
	C17.7,10.9,17.3,10.8,16.7,10.8z"/>
</svg>
