<?xml version="1.0" encoding="utf-8"?>
<!-- Generator: Adobe Illustrator 25.1.0, SVG Export Plug-In . SVG Version: 6.00 Build 0)  -->
<svg version="1.1" id="Layer_1" xmlns="http://www.w3.org/2000/svg" xmlns:xlink="http://www.w3.org/1999/xlink" x="0px" y="0px"
	 viewBox="0 0 24 24" style="enable-background:new 0 0 24 24;" xml:space="preserve">
<style type="text/css">
	.st0{fill:#055282;}
</style>
<path class="st0" d="M22.1,0H1.9C0.8,0,0,0.8,0,1.9V22c0,1.1,0.8,1.9,1.9,1.9h20.2c1,0,1.9-0.8,1.9-1.9V1.9C24,0.8,23.2,0,22.1,0z
	 M5.3,6.6h13.4c0.5,0,0.8,0.4,0.9,0.8l-7.6,5l-7.6-5C4.5,7,4.8,6.6,5.3,6.6z M4.4,8.5l5.2,3.4l-5.2,3.2V8.5z M18.7,17.1H5.3
	c-0.5,0-0.8-0.3-0.9-0.8l6-3.8l1.3,0.9c0.1,0.1,0.2,0.1,0.3,0.1s0.2,0,0.3-0.1l1.3-0.9l6,3.8C19.5,16.8,19.2,17.1,18.7,17.1z
	 M19.6,15.2l-5.2-3.2l5.2-3.4V15.2z"/>
<desc>Created with Sketch.</desc>
</svg>
