<?xml version="1.0" encoding="utf-8"?>
<!-- Generator: Adobe Illustrator 25.1.0, SVG Export Plug-In . SVG Version: 6.00 Build 0)  -->
<svg version="1.1" id="Layer_1" xmlns="http://www.w3.org/2000/svg" xmlns:xlink="http://www.w3.org/1999/xlink" x="0px" y="0px"
	 viewBox="0 0 24 24" style="enable-background:new 0 0 24 24;" xml:space="preserve">
<style type="text/css">
	.st0{fill:#055282;}
</style>
<desc>Created with Sketch.</desc>
<path id="LinkedIn__x28_alt_x29_" class="st0" d="M22.2,0H1.8C0.8,0,0,0.8,0,1.7v20.5c0,1,0.8,1.8,1.8,1.8h20.4c1,0,1.8-0.8,1.8-1.7
	V1.7C24,0.8,23.2,0,22.2,0z M7.3,20H3.6V9.2h3.6V20H7.3z M5.5,7.8L5.5,7.8c-1.2,0-2-0.8-2-1.9S4.3,4,5.5,4s2,0.8,2,1.9
	C7.5,6.9,6.7,7.8,5.5,7.8z M20.3,20h-3.6v-5.8c0-1.5-0.5-2.4-1.8-2.4c-1,0-1.6,0.7-1.9,1.3c-0.1,0.2-0.1,0.6-0.1,0.9v6H9.3
	c0,0,0-9.8,0-10.8h3.6v1.5C13.4,10,14.2,9,16.1,9c2.4,0,4.2,1.5,4.2,4.9V20z"/>
</svg>
