<?xml version="1.0" encoding="utf-8"?>
<!-- Generator: Adobe Illustrator 25.1.0, SVG Export Plug-In . SVG Version: 6.00 Build 0)  -->
<svg version="1.1" id="Layer_1" xmlns="http://www.w3.org/2000/svg" xmlns:xlink="http://www.w3.org/1999/xlink" x="0px" y="0px"
	 viewBox="0 0 800 800" style="enable-background:new 0 0 800 800;" xml:space="preserve">
<style type="text/css">
	.st0{fill:#055282;}
	.st1{fill:#FFFFFF;}
</style>
<rect x="-0.26" y="-0.21" class="st0" width="800" height="800"/>
<path class="st1" d="M653.81,428.53c-1.58,2.68-4.49,4.35-7.61,4.35h-68.43v155.2c0,9.02-7.3,16.32-16.32,16.32h-108.1
	c-9.02,0-16.32-7.3-16.32-16.32v-98.03h-83.56v98.03c0,9.02-7.3,16.32-16.32,16.32h-108.1c-9.02,0-16.32-7.3-16.32-16.32v-155.2
	H155.3c-3.12,0-6.03-1.67-7.61-4.4c-1.58-2.68-1.58-6.03-0.04-8.75c1.01-1.8,2.29-3.47,3.91-5.15l230.8-230.76
	c10.12-10.12,26.61-10.12,36.77-0.04L649.8,414.5c1.76,1.8,3.03,3.47,4.05,5.23C655.39,422.46,655.39,425.8,653.81,428.53z"/>
</svg>
